<svg width="24" height="24" viewBox="0 0 24 24" fill="none" xmlns="http://www.w3.org/2000/svg">
<path d="M8.19047 21.5239C8.71646 21.5239 9.14285 21.0975 9.14285 20.5714C9.14285 20.0455 8.71646 19.6191 8.19047 19.6191C7.66449 19.6191 7.2381 20.0455 7.2381 20.5714C7.2381 21.0975 7.66449 21.5239 8.19047 21.5239Z" stroke="#314350" stroke-width="1.82857" stroke-linecap="round" stroke-linejoin="round"/>
<path d="M18.6666 21.5239C19.1927 21.5239 19.6191 21.0975 19.6191 20.5714C19.6191 20.0455 19.1927 19.6191 18.6666 19.6191C18.1407 19.6191 17.7143 20.0455 17.7143 20.5714C17.7143 21.0975 18.1407 21.5239 18.6666 21.5239Z" stroke="#314350" stroke-width="1.82857" stroke-linecap="round" stroke-linejoin="round"/>
<path d="M2.5238 2.52378H4.42857L6.9619 14.7144C7.05483 15.1477 7.29587 15.5349 7.64353 15.8095C7.99119 16.0841 8.42371 16.229 8.86666 16.2192H18.1809C18.6144 16.2185 19.0347 16.0699 19.3725 15.7981C19.7101 15.5262 19.9449 15.1473 20.0381 14.7239L22 6.7619H5.33624" stroke="#314350" stroke-width="1.82857" stroke-linecap="round" stroke-linejoin="round"/>
</svg>
