<svg width="24" height="24" viewBox="0 0 24 24" fill="none" xmlns="http://www.w3.org/2000/svg">
<path d="M15.477 12.8896L16.992 21.4156C17.009 21.516 16.9949 21.6192 16.9516 21.7114C16.9084 21.8036 16.838 21.8803 16.7499 21.9314C16.6619 21.9825 16.5603 22.0055 16.4588 21.9974C16.3573 21.9892 16.2607 21.9502 16.182 21.8856L12.602 19.1986C12.4292 19.0695 12.2192 18.9998 12.0035 18.9998C11.7878 18.9998 11.5778 19.0695 11.405 19.1986L7.819 21.8846C7.74032 21.9491 7.64386 21.988 7.54249 21.9962C7.44112 22.0044 7.33967 21.9815 7.25166 21.9305C7.16365 21.8796 7.09327 21.803 7.04991 21.711C7.00656 21.619 6.99228 21.516 7.009 21.4156L8.523 12.8896" stroke="#726D69" stroke-width="2" stroke-linecap="round" stroke-linejoin="round"/>
<path d="M12 14C15.3137 14 18 11.3137 18 8C18 4.68629 15.3137 2 12 2C8.68629 2 6 4.68629 6 8C6 11.3137 8.68629 14 12 14Z" stroke="#726D69" stroke-width="2" stroke-linecap="round" stroke-linejoin="round"/>
</svg>
