<svg width="18" height="18" viewBox="0 0 18 18" fill="none" xmlns="http://www.w3.org/2000/svg">
<path d="M6.75 2.25H3C2.58579 2.25 2.25 2.58579 2.25 3V6.75C2.25 7.16421 2.58579 7.5 3 7.5H6.75C7.16421 7.5 7.5 7.16421 7.5 6.75V3C7.5 2.58579 7.16421 2.25 6.75 2.25Z" stroke="#64748B" stroke-width="1.125" stroke-linecap="round" stroke-linejoin="round"/>
<path d="M6.75 10.5H3C2.58579 10.5 2.25 10.8358 2.25 11.25V15C2.25 15.4142 2.58579 15.75 3 15.75H6.75C7.16421 15.75 7.5 15.4142 7.5 15V11.25C7.5 10.8358 7.16421 10.5 6.75 10.5Z" stroke="#64748B" stroke-width="1.125" stroke-linecap="round" stroke-linejoin="round"/>
<path d="M10.5 3H15.75" stroke="#64748B" stroke-width="1.125" stroke-linecap="round" stroke-linejoin="round"/>
<path d="M10.5 6.75H15.75" stroke="#64748B" stroke-width="1.125" stroke-linecap="round" stroke-linejoin="round"/>
<path d="M10.5 11.25H15.75" stroke="#64748B" stroke-width="1.125" stroke-linecap="round" stroke-linejoin="round"/>
<path d="M10.5 15H15.75" stroke="#64748B" stroke-width="1.125" stroke-linecap="round" stroke-linejoin="round"/>
</svg>
