<svg width="60" height="60" viewBox="0 0 60 60" fill="none" xmlns="http://www.w3.org/2000/svg">
<g clip-path="url(#clip0_2_38)">
<g clip-path="url(#clip1_2_38)">
<path d="M45.7968 18.7788L42.8893 21.6863C44.9429 24.8681 45.7469 28.697 45.1464 32.4361C44.546 36.1751 42.5836 39.5599 39.6371 41.9388C36.6906 44.3176 32.9682 45.5224 29.1866 45.3212C25.405 45.1199 21.8315 43.5269 19.1541 40.8487C16.4767 38.1706 14.8846 34.5967 14.6844 30.815C14.4842 27.0334 15.69 23.3113 18.0697 20.3654C20.4493 17.4196 23.8346 15.4581 27.5738 14.8587C31.3131 14.2593 35.1418 15.0643 38.3231 17.1188L41.2293 14.2125C37.2693 11.3985 32.3965 10.1748 27.5768 10.784C22.7571 11.3932 18.3421 13.7907 15.2067 17.5016C12.0714 21.2124 10.4445 25.9658 10.6484 30.8196C10.8524 35.6733 12.8724 40.2734 16.308 43.7081C19.7437 47.1428 24.3443 49.1615 29.1981 49.3642C34.052 49.5668 38.8049 47.9386 42.5149 44.8023C46.2249 41.6659 48.6212 37.2502 49.2291 32.4303C49.837 27.6104 48.6119 22.738 45.7968 18.7788Z" fill="#726D69"/>
<path d="M7.28563 30.4106C7.17799 30.4104 7.07482 30.3676 6.99877 30.2914C6.92272 30.2152 6.88 30.112 6.88 30.0044C6.88695 23.8734 9.32556 17.9955 13.6608 13.6602C17.9961 9.32492 23.874 6.88631 30.005 6.87936C30.1127 6.87936 30.2161 6.92217 30.2923 6.99835C30.3685 7.07454 30.4113 7.17787 30.4113 7.28561C30.4113 7.39336 30.3685 7.49669 30.2923 7.57288C30.2161 7.64906 30.1127 7.69186 30.005 7.69186C24.0894 7.69881 18.4181 10.0518 14.2351 14.2347C10.0521 18.4176 7.69899 24.0888 7.69188 30.0044C7.69213 30.0578 7.68179 30.1107 7.66146 30.1601C7.64113 30.2095 7.61122 30.2544 7.57345 30.2922C7.53567 30.33 7.49079 30.3599 7.44139 30.3802C7.39199 30.4005 7.33905 30.4109 7.28563 30.4106ZM32.4394 7.69186H31.6275C31.5198 7.69186 31.4164 7.64906 31.3402 7.57288C31.2641 7.49669 31.2213 7.39336 31.2213 7.28561C31.2213 7.17787 31.2641 7.07454 31.3402 6.99835C31.4164 6.92217 31.5198 6.87936 31.6275 6.87936H32.4394C32.5471 6.87936 32.6505 6.92217 32.7266 6.99835C32.8028 7.07454 32.8456 7.17787 32.8456 7.28561C32.8456 7.39336 32.8028 7.49669 32.7266 7.57288C32.6505 7.64906 32.5471 7.69186 32.4394 7.69186ZM30.005 53.1294C29.9013 53.1236 29.8038 53.0784 29.7324 53.0029C29.661 52.9275 29.6213 52.8276 29.6213 52.7237C29.6213 52.6199 29.661 52.52 29.7324 52.4446C29.8038 52.3691 29.9013 52.3239 30.005 52.3181C35.9208 52.3115 41.5925 49.9585 45.7757 45.7755C49.9589 41.5924 52.312 35.9208 52.3188 30.005C52.3245 29.9013 52.3698 29.8038 52.4452 29.7324C52.5206 29.661 52.6205 29.6213 52.7244 29.6213C52.8282 29.6213 52.9281 29.661 53.0036 29.7324C53.079 29.8038 53.1242 29.9013 53.13 30.005C53.1231 36.136 50.6845 42.0139 46.3492 46.3492C42.0139 50.6844 36.136 53.123 30.005 53.13V53.1294ZM28.3825 53.1294H27.5713C27.4676 53.1236 27.37 53.0784 27.2987 53.0029C27.2273 52.9275 27.1875 52.8276 27.1875 52.7237C27.1875 52.6199 27.2273 52.52 27.2987 52.4446C27.37 52.3691 27.4676 52.3239 27.5713 52.3181H28.3825C28.4874 52.3222 28.5866 52.3668 28.6594 52.4425C28.7322 52.5182 28.7728 52.6191 28.7728 52.7241C28.7728 52.829 28.7322 52.9299 28.6594 53.0056C28.5866 53.0813 28.4874 53.1259 28.3825 53.13V53.1294ZM42.9875 9.31436H39.7438C39.6401 9.30861 39.5425 9.26336 39.4712 9.18792C39.3998 9.11249 39.36 9.01258 39.36 8.90874C39.36 8.80489 39.3998 8.70499 39.4712 8.62955C39.5425 8.55412 39.6401 8.50887 39.7438 8.50311H42.9875C43.0951 8.50311 43.1983 8.54585 43.2743 8.62192C43.3504 8.69799 43.3931 8.80116 43.3931 8.90874C43.3931 9.01632 43.3504 9.11949 43.2743 9.19556C43.1983 9.27163 43.0951 9.31436 42.9875 9.31436Z" fill="#263238"/>
<path d="M41.6506 10.7094C41.5463 10.7092 41.4461 10.6689 41.3706 10.5969C41.3344 10.5616 41.3056 10.5196 41.2857 10.4731C41.2659 10.4267 41.2555 10.3768 41.255 10.3263V7.2625C41.255 7.16063 41.2969 7.06313 41.3713 6.99125C41.4463 6.91874 41.5466 6.8782 41.6509 6.8782C41.7553 6.8782 41.8556 6.91874 41.9306 6.99125C42.0056 7.06313 42.0469 7.16063 42.0469 7.2625V10.325C42.0472 10.3758 42.0372 10.4262 42.0173 10.4729C41.9974 10.5197 41.9681 10.5619 41.9313 10.5969C41.8561 10.6697 41.7553 10.7105 41.6506 10.7094ZM52.7344 18.755H49.5688C49.4644 18.7552 49.364 18.7149 49.2888 18.6425C49.2524 18.6074 49.2235 18.5653 49.2038 18.5187C49.184 18.4722 49.1738 18.4221 49.1738 18.3716C49.1738 18.321 49.184 18.271 49.2038 18.2244C49.2235 18.1779 49.2524 18.1358 49.2888 18.1006C49.364 18.0282 49.4644 17.9879 49.5688 17.9881H52.7338C52.8388 17.9881 52.9394 18.0288 53.0138 18.1006C53.0502 18.1358 53.0793 18.1779 53.0991 18.2245C53.119 18.2711 53.1293 18.3212 53.1294 18.3719C53.1292 18.4224 53.1189 18.4725 53.0991 18.5189C53.0792 18.5654 53.0502 18.6075 53.0138 18.6425C52.9385 18.7149 52.8388 18.7552 52.7344 18.755Z" fill="#263238"/>
<path d="M50.9425 20.63C50.901 20.6298 50.8602 20.62 50.8231 20.6013C50.7839 20.5816 50.7492 20.5539 50.7213 20.52C50.6916 20.4838 50.6687 20.4425 50.6538 20.3981C50.6379 20.3519 50.6299 20.3033 50.63 20.2544V17.255C50.63 17.1556 50.6631 17.06 50.7219 16.99C50.7483 16.9565 50.7817 16.9293 50.8199 16.9103C50.858 16.8913 50.8999 16.8809 50.9425 16.88C51.0256 16.88 51.105 16.9194 51.1638 16.99C51.2239 17.0651 51.2561 17.1588 51.255 17.255V20.255C51.2551 20.3039 51.2471 20.3525 51.2313 20.3988C51.2162 20.4429 51.1934 20.484 51.1638 20.52C51.136 20.5538 51.1015 20.5815 51.0625 20.6013C51.0253 20.6201 50.9842 20.6299 50.9425 20.63Z" fill="#263238"/>
<path d="M52.505 12.1925L47.8175 16.88L43.7156 16.2944L43.13 12.1925L47.8175 7.505L48.4038 11.6063L52.505 12.1925Z" fill="#EFF4F7"/>
<path d="M47.5032 17.505C47.4843 17.5051 47.4655 17.5037 47.4469 17.5006L43.4282 16.9269C43.341 16.9145 43.2602 16.8742 43.1979 16.812C43.1355 16.7498 43.0951 16.669 43.0826 16.5819L42.5088 12.5619C42.5001 12.4993 42.506 12.4355 42.526 12.3755C42.5461 12.3155 42.5798 12.261 42.6244 12.2163L47.2163 7.62501C47.2696 7.5715 47.3368 7.53391 47.4102 7.51646C47.4837 7.49901 47.5606 7.50238 47.6323 7.52621C47.7039 7.55003 47.7675 7.59336 47.816 7.65133C47.8644 7.7093 47.8956 7.77961 47.9063 7.85438L48.4376 11.5713L52.1538 12.1025C52.2289 12.1125 52.2997 12.1434 52.3582 12.1917C52.4166 12.24 52.4603 12.3037 52.4844 12.3756C52.5084 12.4474 52.5118 12.5246 52.4941 12.5983C52.4764 12.6721 52.4384 12.7393 52.3844 12.7925L47.7907 17.3856C47.7529 17.4234 47.7081 17.4533 47.6588 17.4737C47.6094 17.4941 47.5566 17.5051 47.5032 17.505ZM43.8438 16.1663L47.3588 16.6688L51.2344 12.7938L48.0194 12.335C47.9323 12.3226 47.8516 12.2823 47.7894 12.2201C47.7272 12.1578 47.6868 12.0771 47.6744 11.99L47.2151 8.77563L43.3413 12.65L43.8438 16.1663Z" fill="#263238"/>
<path d="M43.6075 16.4025L43.3194 14.38L28.585 29.1138C28.2834 29.4212 28.1153 29.8354 28.1173 30.2661C28.1194 30.6969 28.2914 31.1094 28.596 31.414C28.9006 31.7186 29.3131 31.8906 29.7439 31.8927C30.1746 31.8948 30.5888 31.7267 30.8963 31.425L45.63 16.6913L43.6075 16.4025Z" fill="#EFF4F7"/>
<path d="M29.5937 32.505C29.1806 32.5055 28.7767 32.3833 28.433 32.1541C28.0894 31.9248 27.8215 31.5987 27.6634 31.2171C27.5052 30.8354 27.4639 30.4154 27.5446 30.0103C27.6254 29.6052 27.8245 29.2331 28.1169 28.9412L43.1762 13.8787C43.231 13.8233 43.3002 13.7843 43.3759 13.7661C43.4517 13.7479 43.5311 13.7513 43.605 13.7759C43.6789 13.8005 43.7445 13.8453 43.7943 13.9052C43.8441 13.9651 43.8762 14.0378 43.8869 14.115L44.1381 15.8731L45.8956 16.1231C45.9727 16.134 46.0453 16.1662 46.1051 16.2161C46.1649 16.2661 46.2096 16.3317 46.2341 16.4056C46.2586 16.4796 46.2619 16.5589 46.2437 16.6347C46.2256 16.7104 46.1866 16.7796 46.1312 16.8344L31.0719 31.8969C30.8778 32.0907 30.6472 32.2442 30.3935 32.3486C30.1399 32.4529 29.868 32.5061 29.5937 32.505ZM43.1769 15.0612L28.7081 29.5312C28.4803 29.7676 28.3543 30.0839 28.3573 30.4122C28.3602 30.7405 28.4919 31.0545 28.7239 31.2867C28.956 31.5189 29.2699 31.6508 29.5982 31.654C29.9264 31.6571 30.2428 31.5314 30.4794 31.3037L44.9481 16.8331L43.7075 16.6556C43.6179 16.6428 43.5348 16.6013 43.4708 16.5373C43.4068 16.4733 43.3652 16.3902 43.3525 16.3006L43.1775 15.06L43.1769 15.0612Z" fill="#263238"/>
<path d="M40.4887 24.8188L37.3593 27.9481C37.8941 29.5367 37.8762 31.2593 37.3086 32.8364C36.7409 34.4134 35.6568 35.7523 34.2323 36.6356C32.8078 37.5189 31.1265 37.8947 29.4615 37.702C27.7965 37.5093 26.2455 36.7594 25.0604 35.5742C23.8753 34.3889 23.1257 32.8378 22.9332 31.1728C22.7407 29.5077 23.1168 27.8265 24.0002 26.4021C24.8837 24.9777 26.2227 23.8938 27.7998 23.3264C29.377 22.7589 31.0996 22.7413 32.6881 23.2763L35.8175 20.1469C33.3744 18.8257 30.5375 18.4281 27.8254 19.0267C25.1133 19.6253 22.7073 21.1801 21.0473 23.4068C19.3874 25.6335 18.5844 28.3834 18.7852 31.1535C18.986 33.9236 20.1772 36.5288 22.1409 38.4928C24.1047 40.4569 26.7098 41.6484 29.4799 41.8496C32.2499 42.0508 34.9999 41.2481 37.2268 39.5885C39.4537 37.9288 41.0089 35.523 41.6078 32.811C42.2068 30.099 41.8095 27.262 40.4887 24.8188Z" fill="#726D69"/>
<path d="M42.6075 22.0125L39.7281 24.9519C40.9916 27.3442 41.3703 30.1058 40.7975 32.75C40.225 35.3956 38.7387 37.7431 36.61 39.3625C34.4944 40.978 31.8604 41.7629 29.2056 41.5687C26.5581 41.3719 24.0681 40.2094 22.1912 38.2931C20.3075 36.3614 19.1711 33.8235 18.9843 31.1319C18.7904 28.4363 19.5562 25.759 21.1462 23.5737C22.7325 21.4012 25.0325 19.8844 27.6243 19.3C30.2185 18.7162 32.9367 19.1052 35.2631 20.3931L38.1425 17.4537C35.0469 15.406 31.2932 14.6003 27.63 15.1975C23.9737 15.7969 20.6631 17.755 18.3362 20.6956C16.0087 23.6369 14.83 27.3525 15.0262 31.1275C15.2218 34.9025 16.7793 38.4712 19.3975 41.1444C22.0162 43.8175 25.5106 45.4075 29.2087 45.6081C32.9068 45.8087 36.5468 44.6062 39.4287 42.2306C42.31 39.8556 44.2287 36.4769 44.8156 32.7437C45.4038 29.0173 44.6191 25.204 42.6075 22.0125Z" fill="white"/>
<path d="M30.0056 50.005C26.8582 50.0061 23.7549 49.2639 20.9485 47.8389C18.1421 46.4138 15.7119 44.3462 13.8556 41.8044C11.9989 39.2625 10.7683 36.3184 10.2638 33.2114C9.75934 30.1044 9.99522 26.9221 10.9523 23.9235C11.9094 20.9248 13.5606 18.1943 15.7718 15.954C17.9829 13.7137 20.6916 12.0269 23.6775 11.0306C26.6632 10.0353 29.8417 9.75908 32.9544 10.2243C36.067 10.6896 39.0258 11.8833 41.59 13.7081C41.6783 13.7709 41.738 13.8661 41.7561 13.9729C41.7741 14.0796 41.749 14.1892 41.6863 14.2775C41.6235 14.3658 41.5283 14.4255 41.4215 14.4435C41.3147 14.4616 41.2052 14.4365 41.1169 14.3737C37.1971 11.5863 32.3729 10.3736 27.6009 10.9762C22.8289 11.5787 18.4576 13.9525 15.3538 17.6269C12.2489 21.3016 10.6375 26.0084 10.8388 30.815C11.0401 35.6215 13.0394 40.1771 16.4406 43.5794C18.9781 46.1182 22.1771 47.8939 25.6739 48.7046C29.1706 49.5154 32.8246 49.3285 36.2204 48.1653C39.6162 47.0022 42.6174 44.9094 44.8827 42.125C47.148 39.3406 48.5864 35.9764 49.0344 32.415C49.6367 27.6423 48.4246 22.8176 45.6381 18.8962C45.5816 18.8079 45.5612 18.7012 45.5811 18.5982C45.601 18.4952 45.6598 18.4038 45.7452 18.343C45.8307 18.2821 45.9362 18.2564 46.0401 18.2712C46.1439 18.286 46.2381 18.3402 46.3031 18.4225C47.8947 20.6599 49.0085 23.2011 49.575 25.8878C50.1414 28.5745 50.1484 31.3491 49.5956 34.0386C49.0428 36.7281 47.942 39.275 46.3617 41.5204C44.7815 43.7659 42.7557 45.6618 40.4106 47.09C37.2759 48.9989 33.6759 50.0075 30.0056 50.005Z" fill="#263238"/>
<path d="M30.0038 45.63C27.5745 45.6303 25.1787 45.0639 23.0067 43.9759C20.8347 42.8879 18.9464 41.3082 17.4919 39.3625C15.6694 36.9244 14.5987 34.007 14.4114 30.9688C14.224 27.9306 14.9281 24.9037 16.4371 22.2601C17.9462 19.6165 20.1945 17.4712 22.906 16.0878C25.6174 14.7043 28.6739 14.1429 31.7 14.4725C34.1146 14.7365 36.4344 15.56 38.475 16.8775C38.5602 16.937 38.619 17.0272 38.6391 17.1292C38.6591 17.2311 38.6388 17.3369 38.5824 17.4242C38.5261 17.5114 38.4381 17.5735 38.3369 17.5972C38.2357 17.6209 38.1293 17.6044 38.04 17.5513C35.1889 15.7247 31.8004 14.9245 28.4333 15.2826C25.0663 15.6408 21.9219 17.1358 19.5188 19.5213C17.4457 21.595 16.034 24.2368 15.4621 27.1127C14.8902 29.9886 15.1837 32.9696 16.3056 35.6787C17.4275 38.3878 19.3274 40.7035 21.7652 42.333C24.2029 43.9626 27.069 44.8328 30.0013 44.8338C33.9325 44.8338 37.7038 43.2713 40.4844 40.4913C42.8698 38.0873 44.3648 34.9423 44.7228 31.5747C45.0808 28.207 44.2805 24.818 42.4538 21.9663C42.3961 21.8769 42.3763 21.7683 42.3987 21.6643C42.421 21.5604 42.4838 21.4696 42.5732 21.4119C42.6625 21.3542 42.7711 21.3344 42.8751 21.3568C42.979 21.3791 43.0698 21.4419 43.1275 21.5313C44.2683 23.2959 45.0413 25.2725 45.4002 27.3429C45.7592 29.4132 45.6968 31.5347 45.2166 33.5804C44.7365 35.626 43.8486 37.5538 42.606 39.2482C41.3634 40.9427 39.7917 42.369 37.985 43.4419C35.5698 44.8757 32.8125 45.632 30.0038 45.63Z" fill="#263238"/>
<path d="M30.0125 41.88C27.6623 41.8797 25.3649 41.1826 23.4109 39.8769C21.4568 38.5711 19.9338 36.7153 19.0343 34.544C18.1349 32.3728 17.8994 29.9836 18.3576 27.6785C18.8158 25.3734 19.9472 23.2559 21.6087 21.5938C23.4244 19.794 25.7693 18.6238 28.2991 18.2548C30.8288 17.8858 33.4102 18.3376 35.6644 19.5438C35.7563 19.5976 35.8237 19.685 35.8524 19.7876C35.8811 19.8902 35.8687 19.9999 35.8181 20.0936C35.7674 20.1872 35.6823 20.2576 35.5807 20.2897C35.4791 20.3218 35.3691 20.3132 35.2737 20.2656C33.1759 19.1423 30.7731 18.7213 28.4183 19.0644C26.0635 19.4075 23.8807 20.4967 22.1906 22.1719C21.1631 23.1994 20.3481 24.4191 19.792 25.7616C19.236 27.104 18.9498 28.5429 18.9498 29.9959C18.9498 31.449 19.236 32.8878 19.792 34.2303C20.3481 35.5728 21.1631 36.7925 22.1906 37.82C23.2181 38.8475 24.4379 39.6625 25.7803 40.2186C27.1228 40.7746 28.5616 41.0608 30.0147 41.0608C31.4677 41.0608 32.9066 40.7746 34.249 40.2186C35.5915 39.6625 36.8113 38.8475 37.8387 37.82C39.5135 36.1294 40.6023 33.9465 40.9455 31.5916C41.2887 29.2368 40.8681 26.834 39.7456 24.7356C39.7201 24.6884 39.7041 24.6365 39.6986 24.5831C39.6931 24.5296 39.6982 24.4756 39.7136 24.4241C39.729 24.3727 39.7543 24.3247 39.7883 24.283C39.8222 24.2414 39.864 24.2068 39.9112 24.1813C39.9585 24.1557 40.0103 24.1398 40.0638 24.1343C40.1172 24.1288 40.1712 24.1339 40.2227 24.1493C40.2742 24.1646 40.3221 24.19 40.3638 24.2239C40.4055 24.2578 40.4401 24.2996 40.4656 24.3469C41.6716 26.6005 42.1234 29.1813 41.7548 31.7106C41.3862 34.2399 40.2165 36.5844 38.4175 38.4C37.3162 39.5071 36.0063 40.3847 34.5636 40.982C33.1209 41.5794 31.574 41.8846 30.0125 41.88Z" fill="#263238"/>
<path d="M29.7126 38.1294C28.5772 38.1308 27.4552 37.8852 26.4244 37.4094C25.3935 36.9337 24.4786 36.2393 23.7431 35.3744C23.0076 34.5096 22.4691 33.495 22.1651 32.4011C21.8611 31.3073 21.7988 30.1604 21.9826 29.04C22.2589 27.3513 23.0811 25.7997 24.3232 24.6227C25.5653 23.4457 27.1589 22.7082 28.8601 22.5231C29.9885 22.4006 31.1302 22.5251 32.2057 22.8881C32.2592 22.9035 32.3091 22.9296 32.3524 22.9647C32.3956 22.9999 32.4312 23.0435 32.4571 23.0928C32.4831 23.1422 32.4987 23.1962 32.5031 23.2518C32.5076 23.3073 32.5007 23.3632 32.483 23.416C32.4652 23.4688 32.437 23.5175 32.3999 23.5591C32.3628 23.6007 32.3177 23.6344 32.2672 23.6581C32.2168 23.6817 32.1621 23.6949 32.1064 23.6969C32.0507 23.6988 31.9952 23.6895 31.9432 23.6694C30.4462 23.1654 28.8227 23.1823 27.3365 23.7175C25.8504 24.2527 24.5889 25.2747 23.7569 26.6175C23.1355 27.6204 22.7774 28.7639 22.7158 29.9421C22.6542 31.1203 22.8911 32.2949 23.4045 33.3571C23.918 34.4193 24.6914 35.3347 25.6529 36.0183C26.6145 36.7018 27.7331 37.1315 28.9051 37.2675C30.4743 37.449 32.0587 37.0945 33.401 36.2617C34.7433 35.4289 35.7646 34.1666 36.2988 32.68C36.8338 31.1938 36.8501 29.57 36.3463 28.0725C36.3291 28.0213 36.3221 27.9672 36.3258 27.9133C36.3294 27.8594 36.3437 27.8067 36.3677 27.7583C36.3918 27.7099 36.4251 27.6667 36.4658 27.6312C36.5065 27.5956 36.5538 27.5685 36.6051 27.5513C36.6563 27.534 36.7104 27.527 36.7643 27.5307C36.8182 27.5344 36.8709 27.5486 36.9193 27.5727C36.9677 27.5967 37.0109 27.63 37.0464 27.6707C37.0819 27.7115 37.1091 27.7588 37.1263 27.81C37.7261 29.5856 37.6681 31.5176 36.963 33.2541C36.2578 34.9905 34.9524 36.4159 33.2844 37.2706C32.179 37.8367 30.9545 38.1311 29.7126 38.1294ZM43.6938 16.7281C43.6128 16.7278 43.5337 16.7035 43.4664 16.6584C43.3991 16.6134 43.3466 16.5494 43.3154 16.4746C43.2843 16.3999 43.2759 16.3176 43.2913 16.238C43.3066 16.1585 43.3451 16.0853 43.4019 16.0275L48.0626 11.365C48.1411 11.2946 48.2437 11.2569 48.3492 11.2598C48.4546 11.2626 48.555 11.3058 48.6296 11.3804C48.7042 11.455 48.7474 11.5554 48.7503 11.6609C48.7532 11.7664 48.7155 11.8689 48.6451 11.9475L43.9844 16.61C43.9462 16.6479 43.9008 16.678 43.851 16.6983C43.8011 16.7187 43.7477 16.7291 43.6938 16.7288V16.7281Z" fill="#263238"/>
</g>
</g>
<defs>
<clipPath id="clip0_2_38">
<rect width="60" height="60" fill="white"/>
</clipPath>
<clipPath id="clip1_2_38">
<rect width="60" height="60" fill="white"/>
</clipPath>
</defs>
</svg>
