<svg width="60" height="60" viewBox="0 0 60 60" fill="none" xmlns="http://www.w3.org/2000/svg">
<g clip-path="url(#clip0_2_18)">
<g clip-path="url(#clip1_2_18)">
<path d="M22.7094 49.8675C22.628 49.8676 22.5486 49.8432 22.4813 49.7975C22.4308 49.7623 22.3887 49.7166 22.3576 49.6635C22.3266 49.6104 22.3074 49.5512 22.3015 49.49C22.2955 49.4288 22.3029 49.3671 22.3232 49.309C22.3434 49.2509 22.3761 49.198 22.4188 49.1537L25.0606 46.46C25.4593 46.0525 25.9319 45.7245 26.4531 45.4937L31.6056 43.2119C32.9455 42.6165 34.0911 41.6567 34.9119 40.4419L42.3769 29.4344C42.4385 29.3437 42.5336 29.2812 42.6413 29.2606C42.7216 29.2453 42.8047 29.2549 42.8795 29.2879C42.9542 29.3209 43.0172 29.3759 43.06 29.4456C43.1043 29.5154 43.1271 29.5967 43.1257 29.6793C43.1243 29.762 43.0986 29.8424 43.0519 29.9106L35.5875 40.9175C34.6807 42.2609 33.4141 43.322 31.9325 43.9794L26.7806 46.2612C26.3556 46.4494 25.9688 46.7175 25.6413 47.0525L22.9994 49.745C22.9616 49.7837 22.9165 49.8144 22.8667 49.8355C22.8169 49.8565 22.7634 49.8674 22.7094 49.8675ZM29.56 37.46C28.9857 37.4598 28.4168 37.3482 27.885 37.1312L26.4913 36.5631C25.9384 36.339 25.4358 36.0067 25.0131 35.5856C24.5875 35.1613 24.2497 34.6573 24.0188 34.1025L22.225 29.8369C22.185 29.7354 22.1855 29.6224 22.2263 29.5212C22.2667 29.4206 22.345 29.3398 22.4444 29.2962C22.4931 29.2749 22.5456 29.2634 22.5988 29.2624C22.652 29.2615 22.7049 29.271 22.7544 29.2906C22.8544 29.3306 22.9356 29.4087 22.9794 29.5087L24.7725 33.7731C24.9615 34.227 25.238 34.6392 25.5863 34.9862C25.9321 35.3308 26.3432 35.6028 26.7956 35.7862L28.1894 36.355C28.8534 36.6278 29.5838 36.6961 30.2869 36.5512L31.7463 36.2531C32.593 36.0783 33.3514 35.6118 33.8894 34.935L38.2938 29.4087C38.3268 29.3643 38.3685 29.3269 38.4163 29.2989C38.464 29.2709 38.517 29.2528 38.5719 29.2456C38.6268 29.2387 38.6826 29.2432 38.7357 29.2588C38.7888 29.2744 38.8381 29.3008 38.8806 29.3362C38.9239 29.372 38.9594 29.4161 38.9852 29.4659C39.011 29.5158 39.0264 29.5703 39.0306 29.6262C39.0352 29.6821 39.0288 29.7384 39.0116 29.7918C38.9945 29.8452 38.9669 29.8947 38.9306 29.9375L34.5263 35.4625C33.8683 36.2902 32.9406 36.8607 31.905 37.0744L30.4463 37.3712C30.1546 37.4305 29.8577 37.4602 29.56 37.46ZM16.035 43.0625C15.9538 43.0623 15.8746 43.0377 15.8075 42.9919C15.7573 42.9565 15.7152 42.9108 15.6843 42.8577C15.6534 42.8046 15.6343 42.7455 15.6284 42.6843C15.6225 42.6232 15.6298 42.5615 15.6499 42.5035C15.6701 42.4454 15.7025 42.3924 15.745 42.3481L17.7988 40.2544C18.4005 39.642 18.8601 38.9048 19.145 38.095C19.4319 37.2812 19.5381 36.4146 19.4563 35.5556L18.9106 29.7119C18.9002 29.6017 18.9331 29.4918 19.0025 29.4056C19.0541 29.3423 19.1235 29.2959 19.2017 29.2724C19.2799 29.2489 19.3633 29.2493 19.4413 29.2736C19.5192 29.298 19.5881 29.3451 19.639 29.409C19.6899 29.4728 19.7205 29.5505 19.7269 29.6319L20.2738 35.4769C20.367 36.4583 20.2454 37.4483 19.9175 38.3781C19.5917 39.3035 19.0664 40.1459 18.3788 40.8456L16.325 42.9394C16.2874 42.9781 16.2424 43.009 16.1927 43.0301C16.1431 43.0513 16.089 43.0623 16.035 43.0625Z" fill="#263238"/>
<path d="M9.27002 47.1063L18.0113 55.8438C18.1355 55.968 18.304 56.0378 18.4797 56.0378C18.6554 56.0378 18.8239 55.968 18.9481 55.8438L22.4106 52.3831C22.5346 52.259 22.6043 52.0908 22.6043 51.9153C22.6043 51.7399 22.5346 51.5716 22.4106 51.4475L13.6688 42.71C13.5446 42.586 13.3762 42.5163 13.2006 42.5163C13.0251 42.5163 12.8567 42.586 12.7325 42.71L9.27002 46.1706C9.20852 46.2321 9.15974 46.3051 9.12646 46.3854C9.09318 46.4657 9.07605 46.5518 9.07605 46.6388C9.07605 46.7257 9.09318 46.8118 9.12646 46.8921C9.15974 46.9724 9.20852 47.0448 9.27002 47.1063Z" fill="#726D69"/>
<path d="M18.4819 56.3825C18.3184 56.383 18.1565 56.3512 18.0054 56.2887C17.8544 56.2263 17.7172 56.1345 17.6019 56.0187L9.0975 47.5181C8.86476 47.2846 8.73408 46.9684 8.73408 46.6387C8.73408 46.3091 8.86476 45.9928 9.0975 45.7594L12.3238 42.535C12.5608 42.3087 12.876 42.1824 13.2037 42.1824C13.5315 42.1824 13.8467 42.3087 14.0838 42.535L22.5875 51.0356C22.8202 51.2691 22.9509 51.5853 22.9509 51.915C22.9509 52.2447 22.8202 52.5609 22.5875 52.7944L19.3612 56.0187C19.2458 56.1344 19.1086 56.2261 18.9576 56.2885C18.8066 56.351 18.6453 56.3829 18.4819 56.3825ZM9.68437 46.9319L18.1894 55.4319C18.2684 55.5073 18.3735 55.5494 18.4828 55.5494C18.5921 55.5494 18.6972 55.5073 18.7762 55.4319L22.0019 52.2075C22.0404 52.169 22.0709 52.1233 22.0918 52.073C22.1126 52.0227 22.1234 51.9688 22.1234 51.9144C22.1234 51.8599 22.1126 51.806 22.0918 51.7557C22.0709 51.7054 22.0404 51.6597 22.0019 51.6212L13.4975 43.1212C13.4184 43.0458 13.3134 43.0037 13.2041 43.0037C13.0948 43.0037 12.9897 43.0458 12.9106 43.1212L9.68562 46.3456C9.64711 46.3841 9.61656 46.4298 9.59571 46.4801C9.57487 46.5304 9.56414 46.5843 9.56414 46.6387C9.56414 46.6932 9.57487 46.7471 9.59571 46.7974C9.61656 46.8477 9.64711 46.8934 9.68562 46.9319H9.68437ZM50.6125 28.6262H9.3875C9.05396 28.6266 8.73355 28.4962 8.495 28.2631C8.37825 28.1489 8.2854 28.0126 8.22187 27.8622C8.15835 27.7118 8.12542 27.5502 8.125 27.3869V25.7344C8.125 25.4056 8.25813 25.0906 8.495 24.8581C8.7333 24.6249 9.05346 24.4943 9.38688 24.4944H50.6131C50.9475 24.4944 51.2681 24.6256 51.505 24.8581C51.7419 25.0906 51.8744 25.4056 51.875 25.7344V27.3869C51.875 27.7156 51.7419 28.0306 51.505 28.2631C51.2666 28.4961 50.9458 28.6264 50.6125 28.6262ZM9.3875 25.32C9.275 25.32 9.16875 25.3637 9.09 25.4412C9.05104 25.4793 9.02008 25.5248 8.99894 25.5751C8.9778 25.6253 8.9669 25.6792 8.96688 25.7337V27.3862C8.96688 27.4956 9.01062 27.6006 9.09 27.6781C9.16933 27.7557 9.27588 27.7993 9.38688 27.7994H50.6131C50.7241 27.7993 50.8307 27.7557 50.91 27.6781C50.9489 27.6401 50.9798 27.5947 51.0009 27.5445C51.022 27.4944 51.033 27.4406 51.0331 27.3862V25.7337C51.033 25.6794 51.022 25.6255 51.0009 25.5754C50.9798 25.5253 50.9489 25.4799 50.91 25.4419C50.8307 25.3642 50.7241 25.3207 50.6131 25.3206H9.38688L9.3875 25.32ZM30.1125 35.7375C30.033 35.7374 29.955 35.7151 29.8875 35.6731C29.8372 35.6428 29.794 35.6019 29.7609 35.5533C29.7279 35.5047 29.7058 35.4495 29.6961 35.3916C29.6864 35.3336 29.6894 35.2742 29.7048 35.2175C29.7203 35.1608 29.7479 35.1082 29.7856 35.0631L34.3 29.6069C34.3343 29.5621 34.3772 29.5247 34.4263 29.497C34.4754 29.4693 34.5296 29.4518 34.5856 29.4456C34.6416 29.4389 34.6984 29.4434 34.7527 29.4587C34.807 29.474 34.8577 29.5 34.9019 29.535C34.9454 29.5699 34.9815 29.6133 35.0079 29.6624C35.0343 29.7116 35.0506 29.7656 35.0556 29.8212C35.0606 29.8768 35.054 29.9328 35.0364 29.9857C35.0187 30.0386 34.9904 30.0873 34.9531 30.1287L30.4387 35.585C30.3991 35.6331 30.3493 35.6717 30.2929 35.6981C30.2364 35.7245 30.1748 35.7379 30.1125 35.7375ZM47.2475 47.3875H46.4062C46.2951 47.3877 46.1883 47.3444 46.1087 47.2669C46.0698 47.2287 46.0389 47.1832 46.0178 47.133C45.9967 47.0828 45.9858 47.0288 45.9858 46.9744C45.9858 46.9199 45.9967 46.8659 46.0178 46.8157C46.0389 46.7655 46.0698 46.72 46.1087 46.6819C46.1883 46.6043 46.2951 46.561 46.4062 46.5612H47.2475C47.3594 46.5612 47.4662 46.605 47.545 46.6825C47.5838 46.7206 47.6147 46.7661 47.6357 46.8162C47.6568 46.8664 47.6676 46.9203 47.6676 46.9747C47.6676 47.0291 47.6568 47.083 47.6357 47.1331C47.6147 47.1833 47.5838 47.2288 47.545 47.2669C47.4654 47.3444 47.3586 47.3877 47.2475 47.3875ZM44.7237 47.3875H35.4688C35.3576 47.3877 35.2508 47.3444 35.1712 47.2669C35.1324 47.2287 35.1015 47.1832 35.0805 47.133C35.0594 47.0827 35.0486 47.0288 35.0486 46.9744C35.0486 46.9199 35.0594 46.866 35.0805 46.8158C35.1015 46.7656 35.1324 46.72 35.1712 46.6819C35.2508 46.6043 35.3576 46.561 35.4688 46.5612H44.7237C44.835 46.5612 44.9425 46.605 45.0212 46.6825C45.06 46.7206 45.0908 46.7661 45.1118 46.8163C45.1328 46.8665 45.1436 46.9203 45.1436 46.9747C45.1436 47.0291 45.1328 47.0829 45.1118 47.1331C45.0908 47.1832 45.06 47.2287 45.0212 47.2669C44.9417 47.3444 44.8349 47.3877 44.7237 47.3875ZM43.0412 49.8669H32.1038C31.9923 49.8671 31.8853 49.8236 31.8056 49.7456C31.7668 49.7075 31.7359 49.662 31.7149 49.6119C31.6938 49.5617 31.683 49.5078 31.683 49.4534C31.683 49.399 31.6938 49.3452 31.7149 49.295C31.7359 49.2448 31.7668 49.1993 31.8056 49.1612C31.8851 49.0835 31.9919 49.0399 32.1031 49.04H43.0406C43.1519 49.04 43.2594 49.0837 43.3381 49.1612C43.3769 49.1994 43.4077 49.2449 43.4287 49.295C43.4497 49.3452 43.4605 49.399 43.4605 49.4534C43.4605 49.5078 43.4497 49.5617 43.4287 49.6118C43.4077 49.662 43.3769 49.7075 43.3381 49.7456C43.2589 49.8234 43.1523 49.867 43.0412 49.8669ZM45.3538 11.025C45.2653 11.0256 45.1788 10.9988 45.1062 10.9481C45.034 10.8976 44.9797 10.8253 44.9512 10.7419L44.4875 9.37249C44.3899 9.08831 44.2272 8.83085 44.0125 8.62062C43.7967 8.40896 43.5352 8.24966 43.2481 8.15499L41.8531 7.69812C41.7699 7.67076 41.6974 7.6181 41.6456 7.54749C41.5943 7.47751 41.5667 7.393 41.5667 7.30624C41.5667 7.21948 41.5943 7.13497 41.6456 7.06499C41.6975 6.99461 41.77 6.94218 41.8531 6.91499L43.2481 6.45749C43.5362 6.36249 43.7981 6.20312 44.0131 5.99249C44.2281 5.78124 44.3906 5.52374 44.4869 5.24124L44.9512 3.86999C44.9863 3.79422 45.0425 3.73019 45.1131 3.68562C45.1661 3.65214 45.2257 3.63029 45.2877 3.62149C45.3498 3.61269 45.4131 3.61715 45.4733 3.63457C45.5335 3.65199 45.5894 3.68198 45.6372 3.72255C45.685 3.76313 45.7237 3.81338 45.7506 3.86999L46.2144 5.24124C46.3112 5.52437 46.4738 5.78124 46.6888 5.99249C46.9038 6.20374 47.1656 6.36249 47.4538 6.45749L48.8487 6.91499C48.9325 6.94187 49.005 6.99499 49.0569 7.06499C49.0959 7.11746 49.1217 7.17853 49.1322 7.24306C49.1427 7.3076 49.1375 7.3737 49.1171 7.43582C49.0967 7.49793 49.0617 7.55423 49.015 7.59999C48.9683 7.64575 48.9113 7.67961 48.8487 7.69874L47.4538 8.15562C47.1665 8.2502 46.9047 8.4095 46.6888 8.62124C46.4738 8.83249 46.3112 9.08999 46.2144 9.37312L45.7506 10.7431C45.7223 10.8251 45.6689 10.8961 45.5981 10.9462C45.5269 10.9968 45.4411 11.0243 45.3538 11.025ZM43.3194 7.30624L43.5169 7.37187C43.9294 7.50749 44.3031 7.73562 44.6106 8.03749C44.9173 8.33786 45.1495 8.70578 45.2887 9.11187L45.3556 9.30562L45.4225 9.11187C45.5616 8.70557 45.7939 8.33743 46.1006 8.03687C46.4094 7.73429 46.7836 7.50676 47.1944 7.37187L47.3919 7.30624L47.1944 7.23999C46.7836 7.10485 46.4094 6.87711 46.1006 6.57437C45.7941 6.27411 45.5619 5.90644 45.4225 5.50062L45.3556 5.30687L45.2881 5.50062C45.1489 5.90638 44.9169 6.27405 44.6106 6.57437C44.3019 6.87711 43.9276 7.10485 43.5169 7.23999L43.3194 7.30624Z" fill="#263238"/>
<path d="M39.2325 9.78687H14.0138C13.8382 9.78687 13.6697 9.85658 13.5455 9.98069C13.4213 10.1048 13.3514 10.2731 13.3513 10.4487V24.0487C13.3516 24.2242 13.4215 24.3924 13.5457 24.5164C13.6699 24.6404 13.8383 24.71 14.0138 24.71H39.2325C39.4081 24.71 39.5765 24.6403 39.7007 24.5162C39.825 24.3921 39.8948 24.2237 39.895 24.0481V10.4481C39.8947 10.2726 39.8247 10.1044 39.7005 9.98046C39.5763 9.85649 39.408 9.78686 39.2325 9.78687Z" fill="#726D69"/>
<path d="M39.065 25.1244H14.1812C13.8515 25.1239 13.5355 24.9927 13.3023 24.7596C13.0692 24.5264 12.938 24.2103 12.9375 23.8806V10.6156C12.9378 10.2859 13.069 9.96972 13.3022 9.73654C13.5353 9.50336 13.8515 9.37222 14.1812 9.37189H39.065C39.3947 9.37255 39.7106 9.5038 39.9437 9.7369C40.1768 9.97001 40.3081 10.286 40.3088 10.6156V23.8813C40.3086 24.2111 40.1775 24.5273 39.9443 24.7605C39.7111 24.9938 39.3948 25.1242 39.065 25.1244ZM14.1812 10.2006C14.0715 10.201 13.9662 10.2447 13.8886 10.3224C13.811 10.4 13.7672 10.5052 13.7669 10.615V23.88C13.7669 23.9899 13.8105 24.0953 13.8882 24.173C13.966 24.2507 14.0714 24.2944 14.1812 24.2944H39.065C39.1748 24.2942 39.2801 24.2505 39.3578 24.1728C39.4355 24.0952 39.4792 23.9899 39.4794 23.88V10.615C39.4792 10.5052 39.4355 10.3999 39.3578 10.3222C39.2801 10.2445 39.1748 10.2008 39.065 10.2006H14.1812Z" fill="#263238"/>
<path d="M41.875 24.8675H46.0413C46.1506 24.8675 46.2594 24.8437 46.36 24.7962C46.4619 24.7494 46.5538 24.68 46.6313 24.5931C46.7088 24.5056 46.77 24.4025 46.8119 24.2887C46.8538 24.175 46.875 24.0531 46.875 23.93V22.055C46.877 21.8119 46.7903 21.5764 46.6313 21.3925C46.475 21.2162 46.2625 21.1175 46.0413 21.1175H41.875" fill="#EFF4F7"/>
<path d="M46.1606 24.8675H41.6969C41.5787 24.8678 41.4652 24.8218 41.3806 24.7394C41.3395 24.699 41.3068 24.6509 41.2844 24.5978C41.2621 24.5447 41.2506 24.4876 41.2506 24.43C41.2506 24.3724 41.2621 24.3153 41.2844 24.2622C41.3068 24.2091 41.3395 24.1609 41.3806 24.1206C41.465 24.0383 41.5783 23.9923 41.6962 23.9925H46.1606C46.2794 23.9925 46.3919 23.9456 46.4762 23.8637C46.5174 23.8235 46.5502 23.7755 46.5726 23.7225C46.595 23.6695 46.6067 23.6126 46.6069 23.555V21.805C46.6066 21.7474 46.5948 21.6904 46.5723 21.6374C46.5498 21.5844 46.5169 21.5364 46.4756 21.4962C46.3914 21.4139 46.2784 21.3677 46.1606 21.3675H41.6969C41.5787 21.3678 41.4652 21.3218 41.3806 21.2394C41.3395 21.199 41.3068 21.1509 41.2844 21.0978C41.2621 21.0447 41.2506 20.9876 41.2506 20.93C41.2506 20.8724 41.2621 20.8153 41.2844 20.7622C41.3068 20.7091 41.3395 20.6609 41.3806 20.6206C41.465 20.5383 41.5783 20.4923 41.6962 20.4925H46.1606C46.5156 20.4925 46.8562 20.6312 47.1075 20.8775C47.3581 21.1237 47.4994 21.4569 47.5 21.805V23.555C47.5 23.9031 47.3581 24.2362 47.1075 24.4825C46.8542 24.7295 46.5144 24.8677 46.1606 24.8675Z" fill="#263238"/>
<path d="M41.875 21.1175H46.0413C46.2625 21.1175 46.4744 21.035 46.6306 20.8887C46.7869 20.7419 46.875 20.5431 46.875 20.3362V18.7737C46.875 18.6712 46.8538 18.57 46.8119 18.475C46.7692 18.3791 46.7075 18.2928 46.6306 18.2212C46.5523 18.1481 46.4606 18.0906 46.3606 18.0519C46.259 18.0125 46.1509 17.9924 46.0419 17.9925H41.875" fill="#EFF4F7"/>
<path d="M46.1606 21.1175H41.6969C41.5819 21.1188 41.47 21.0799 41.3806 21.0075C41.3407 20.9756 41.3083 20.9354 41.2857 20.8896C41.2632 20.8438 41.251 20.7935 41.25 20.7425C41.25 20.6425 41.2969 20.5475 41.3812 20.4769C41.4705 20.4048 41.5821 20.3661 41.6969 20.3675H46.1606C46.2794 20.3675 46.3919 20.3275 46.4762 20.2575C46.5161 20.2256 46.5485 20.1853 46.5711 20.1395C46.5936 20.0937 46.6059 20.0435 46.6069 19.9925V18.4925C46.6058 18.4414 46.5935 18.3912 46.5708 18.3454C46.5481 18.2996 46.5156 18.2593 46.4756 18.2275C46.3866 18.1553 46.2752 18.1164 46.1606 18.1175H41.6969C41.5819 18.119 41.4701 18.0803 41.3806 18.0081C41.3406 17.9762 41.3082 17.9358 41.2856 17.8899C41.263 17.844 41.2509 17.7937 41.25 17.7425C41.25 17.6431 41.2969 17.5475 41.3812 17.4775C41.4704 17.4052 41.5821 17.3663 41.6969 17.3675H46.1606C46.5156 17.3675 46.8563 17.4862 47.1075 17.6975C47.3581 17.9081 47.4994 18.1944 47.5 18.4925V19.9925C47.5 20.2906 47.3581 20.5769 47.1075 20.7875C46.8399 21.0043 46.505 21.121 46.1606 21.1175Z" fill="#263238"/>
<path d="M41.875 17.9925H46.0413C46.2625 17.9925 46.4744 17.91 46.6306 17.7637C46.7869 17.6169 46.875 17.4181 46.875 17.2112V15.6487C46.875 15.5462 46.8538 15.445 46.8119 15.35C46.7692 15.2541 46.7075 15.1678 46.6306 15.0962C46.5523 15.0231 46.4606 14.9656 46.3606 14.9269C46.259 14.8875 46.1509 14.8674 46.0419 14.8675H41.875" fill="#EFF4F7"/>
<path d="M46.1606 18.6175H41.6969C41.5787 18.6178 41.4652 18.5718 41.3806 18.4894C41.3395 18.449 41.3068 18.4009 41.2844 18.3478C41.2621 18.2947 41.2506 18.2376 41.2506 18.18C41.2506 18.1224 41.2621 18.0653 41.2844 18.0122C41.3068 17.9591 41.3395 17.9109 41.3806 17.8706C41.465 17.7883 41.5783 17.7423 41.6962 17.7425H46.1606C46.2794 17.7425 46.3919 17.6956 46.4762 17.6137C46.5174 17.5735 46.5502 17.5255 46.5726 17.4725C46.595 17.4195 46.6067 17.3625 46.6069 17.305V15.555C46.6065 15.4974 46.5948 15.4404 46.5722 15.3874C46.5497 15.3344 46.5169 15.2864 46.4756 15.2462C46.3913 15.1642 46.2783 15.1182 46.1606 15.1181H41.6969C41.5786 15.1183 41.4651 15.0721 41.3806 14.9894C41.3395 14.949 41.3068 14.9009 41.2844 14.8478C41.2621 14.7947 41.2506 14.7376 41.2506 14.68C41.2506 14.6224 41.2621 14.5653 41.2844 14.5122C41.3068 14.4591 41.3395 14.4109 41.3806 14.3706C41.465 14.2883 41.5783 14.2423 41.6962 14.2425H46.1606C46.5156 14.2425 46.8562 14.3812 47.1075 14.6275C47.3587 14.8731 47.5 15.2069 47.5 15.555V17.305C47.5 17.6531 47.3581 17.9862 47.1075 18.2325C46.8542 18.4795 46.5144 18.6177 46.1606 18.6175Z" fill="#263238"/>
<path d="M26.6225 22.2225C27.2759 22.2227 27.9229 22.0943 28.5266 21.8445C29.1304 21.5946 29.679 21.2283 30.1411 20.7665C30.6033 20.3046 30.9699 19.7562 31.2201 19.1526C31.4703 18.5491 31.5992 17.9021 31.5994 17.2487C31.5994 16.5953 31.4706 15.9483 31.2205 15.3446C30.9705 14.7409 30.6039 14.1924 30.1418 13.7304C29.6797 13.2685 29.1311 12.902 28.5274 12.6521C27.9236 12.4021 27.2765 12.2736 26.6231 12.2737C25.9696 12.2735 25.3225 12.402 24.7187 12.6519C24.1149 12.9018 23.5662 13.2682 23.104 13.7302C22.6419 14.1922 22.2753 14.7407 22.0251 15.3445C21.775 15.9482 21.6462 16.5953 21.6462 17.2487C21.6464 17.9021 21.7752 18.549 22.0254 19.1525C22.2756 19.756 22.6422 20.3044 23.1043 20.7662C23.5664 21.2281 24.1149 21.5944 24.7185 21.8443C25.3222 22.0941 25.9692 22.2227 26.6225 22.2225Z" fill="white"/>
<path d="M26.6237 22.6375C25.5576 22.6374 24.5154 22.3212 23.6288 21.7291C22.7423 21.137 22.051 20.2954 21.6425 19.3106C21.3372 18.5743 21.1991 17.7794 21.2382 16.9833C21.2772 16.1872 21.4924 15.4096 21.8683 14.7067C22.2442 14.0038 22.7713 13.3931 23.4118 12.9185C24.0522 12.444 24.79 12.1175 25.5719 11.9625C26.6176 11.7548 27.7014 11.8616 28.6865 12.2695C29.6715 12.6775 30.5135 13.3682 31.1062 14.2544C31.6986 15.1404 32.0149 16.1823 32.015 17.2481C32.0125 18.6771 31.4436 20.0469 30.4329 21.0571C29.4222 22.0674 28.0528 22.6357 26.6237 22.6375ZM26.6237 12.6888C25.7216 12.6888 24.8397 12.9563 24.0895 13.4573C23.3393 13.9583 22.7544 14.6705 22.4087 15.5038C22.1504 16.1268 22.0334 16.7994 22.0665 17.4731C22.0995 18.1467 22.2816 18.8047 22.5997 19.3995C22.9177 19.9942 23.3639 20.511 23.9058 20.9125C24.4478 21.314 25.0721 21.5902 25.7337 21.7213C26.3951 21.8525 27.0773 21.8355 27.7313 21.6716C28.3853 21.5077 28.9949 21.2009 29.5162 20.7733C30.0375 20.3457 30.4576 19.8079 30.7462 19.1986C31.0349 18.5893 31.1849 17.9236 31.1856 17.2494C31.1843 16.0399 30.7031 14.8804 29.8477 14.0253C28.9923 13.1703 27.8332 12.6896 26.6237 12.6888Z" fill="#263238"/>
<path d="M35.09 22.3675H18.6581C18.5784 22.3675 18.5001 22.3457 18.4319 22.3044C18.3647 22.2636 18.3105 22.2047 18.2756 22.1344C17.6687 20.9031 16.5925 19.9431 15.2706 19.4556C15.1917 19.4263 15.1234 19.3741 15.0744 19.3056C15.0261 19.2382 15.0001 19.1573 15 19.0744V15.0369C15 14.9544 15.025 14.8737 15.0738 14.8056C15.1229 14.737 15.1915 14.6848 15.2706 14.6556C16.5931 14.1669 17.6688 13.2069 18.2763 11.9744C18.3113 11.9044 18.3655 11.8459 18.4325 11.8056C18.5008 11.7644 18.579 11.7428 18.6588 11.7431H35.09C35.17 11.7425 35.2488 11.7644 35.3162 11.8056C35.3833 11.8459 35.4375 11.9044 35.4725 11.9744C36.0788 13.2081 37.1563 14.1681 38.4788 14.6556C38.5579 14.6849 38.6264 14.7371 38.6756 14.8056C38.7238 14.8731 38.7498 14.9539 38.75 15.0369V19.0744C38.7498 19.1573 38.7238 19.2381 38.6756 19.3056C38.6266 19.374 38.5582 19.4262 38.4794 19.4556C37.1569 19.9431 36.0806 20.9025 35.4737 22.1344C35.4389 22.2047 35.3847 22.2637 35.3175 22.3044C35.2489 22.3459 35.1702 22.3678 35.09 22.3675ZM18.9188 21.55H34.8288C35.5 20.3244 36.5837 19.3544 37.9025 18.8V15.31C36.5837 14.7562 35.4994 13.7862 34.8288 12.56H18.92C18.2487 13.7862 17.165 14.7556 15.8463 15.31V18.8C17.165 19.3544 18.2481 20.3244 18.9188 21.55Z" fill="#3990D0"/>
</g>
</g>
<defs>
<clipPath id="clip0_2_18">
<rect width="60" height="60" fill="white"/>
</clipPath>
<clipPath id="clip1_2_18">
<rect width="60" height="60" fill="white"/>
</clipPath>
</defs>
</svg>
