<svg width="24" height="24" viewBox="0 0 24 24" fill="none" xmlns="http://www.w3.org/2000/svg">
<path d="M12 10C14.2091 10 16 8.20914 16 6C16 3.79086 14.2091 2 12 2C9.79086 2 8 3.79086 8 6C8 8.20914 9.79086 10 12 10Z" stroke="#314350" stroke-width="1.6"/>
<path d="M2.40002 22C2.17911 22 1.99894 21.8208 2.01034 21.6001C2.12336 19.4117 3.16097 17.3333 4.92895 15.7775C6.80432 14.1271 9.34785 13.2 12 13.2C14.6522 13.2 17.1957 14.1271 19.0711 15.7775C20.8391 17.3333 21.8767 19.4117 21.9897 21.6001C22.0011 21.8208 21.8209 22 21.6 22H12H2.40002Z" stroke="#314350" stroke-width="1.6" stroke-linejoin="round"/>
</svg>
